<svg xmlns="http://www.w3.org/2000/svg" viewBox="0 0 200.36 150"><path fill="white" d="M152.87,34.82,98,8.79A90.55,90.55,0,0,0,56.34.06V0A56.33,56.33,0,0,0,1,46a1.94,1.94,0,0,0,0,.24,2.35,2.35,0,0,0,4.18,1.47h0A68.94,68.94,0,0,1,56,22l.3.09a68.56,68.56,0,0,1,32.25,6.6l54.85,26a5,5,0,0,1-4.29,9l-54.84-26A59,59,0,1,0,80.1,146.07a2.34,2.34,0,0,0-.14-4.16h0L43.15,124.43A37,37,0,0,1,74.88,57.58l54.84,26a27,27,0,1,0,23.15-48.78Z"/><path fill="white" d="M47.49,115.19l54.84,26A90.43,90.43,0,0,0,144,149.94V150a56.33,56.33,0,0,0,55.36-46,1.94,1.94,0,0,0,0-.24,2.35,2.35,0,0,0-4.17-1.47h0A69,69,0,0,1,144.33,128l-.31-.09a68.57,68.57,0,0,1-32.25-6.61l-54.85-26a5,5,0,0,1,4.29-9l54.84,26A59,59,0,1,0,120.26,3.93a2.35,2.35,0,0,0,.14,4.17h0l36.81,17.47a37,37,0,1,1-31.73,66.85l-54.84-26a27,27,0,1,0-23.15,48.79Z"/></svg>